<svg width="48" height="48" viewBox="0 0 48 48" fill="none" xmlns="http://www.w3.org/2000/svg">
<path d="M34.76 28.6601C30.9415 28.6565 27.2553 27.2615 24.3912 24.7361C21.5271 22.2107 19.6816 18.7281 19.2 14.9401C19.1849 14.8109 19.12 14.6927 19.0192 14.6106C18.9184 14.5284 18.7896 14.4888 18.66 14.5001C17.9881 14.54 17.3198 14.6269 16.66 14.7601C15.8737 13.6554 14.7679 12.8179 13.4915 12.3603C12.2151 11.9026 10.8291 11.8467 9.52 12.2001C9.21128 12.2825 8.93005 12.4456 8.7052 12.6726C8.48035 12.8996 8.31998 13.1824 8.24057 13.4919C8.16116 13.8014 8.16557 14.1264 8.25334 14.4337C8.34111 14.7409 8.50908 15.0193 8.74 15.2401C9.29635 15.7161 9.72874 16.32 10 17.0001C10.0346 17.1034 10.0358 17.215 10.0035 17.3191C9.97117 17.4232 9.90699 17.5145 9.82 17.5801C7.06602 19.407 5.06897 22.1716 4.2 25.3601C4.17047 25.4661 4.1081 25.5599 4.02185 25.6282C3.9356 25.6965 3.82992 25.7357 3.72 25.7401H3.1C2.41044 25.7401 1.74912 26.014 1.26152 26.5016C0.773928 26.9892 0.5 27.6505 0.5 28.3401V31.5801C0.5 32.2697 0.773928 32.931 1.26152 33.4186C1.74912 33.9062 2.41044 34.1801 3.1 34.1801H4.94C5.02833 34.1757 5.11617 34.1958 5.19381 34.2381C5.27146 34.2805 5.33589 34.3434 5.38 34.4201C6.59169 36.4826 8.28714 38.2193 10.32 39.4801L8.82 44.6401C8.6462 45.2659 8.72481 45.9349 9.03895 46.5033C9.35309 47.0718 9.87768 47.4943 10.5 47.6801C10.7214 47.7427 10.95 47.7763 11.18 47.7801C11.7123 47.776 12.2292 47.6007 12.6542 47.2801C13.0792 46.9596 13.3898 46.5108 13.54 46.0001L14.7 42.0001C14.7162 41.9378 14.7447 41.8794 14.7838 41.8284C14.823 41.7774 14.872 41.7347 14.928 41.703C14.9839 41.6713 15.0457 41.6511 15.1096 41.6438C15.1735 41.6364 15.2383 41.642 15.3 41.6601C16.8619 42.0618 18.4673 42.2701 20.08 42.2801C21.6934 42.2801 23.3 42.0717 24.86 41.6601C24.9845 41.6289 25.1163 41.6468 25.228 41.7101C25.3397 41.7734 25.4228 41.8772 25.46 42.0001L26.62 46.0001C26.7674 46.5125 27.0772 46.9631 27.5028 47.2841C27.9285 47.6051 28.4469 47.7792 28.98 47.7801C29.2099 47.7748 29.4383 47.7412 29.66 47.6801C29.9693 47.5906 30.2578 47.4407 30.5089 47.2391C30.7599 47.0376 30.9687 46.7883 31.123 46.5057C31.2773 46.2231 31.3741 45.9128 31.408 45.5926C31.4418 45.2724 31.4119 44.9487 31.32 44.6401L30 39.8401C29.969 39.7376 29.9717 39.6279 30.0077 39.5271C30.0437 39.4263 30.1111 39.3397 30.2 39.2801C31.9476 38.186 33.4197 36.7039 34.5018 34.9488C35.584 33.1938 36.2472 31.2129 36.44 29.1601C36.4488 29.0872 36.4408 29.0132 36.4165 28.9438C36.3923 28.8745 36.3524 28.8116 36.3 28.7601C36.2515 28.7093 36.1921 28.6703 36.1262 28.646C36.0604 28.6218 35.9898 28.6129 35.92 28.6201L34.76 28.6601ZM8.58 26.0001C8.57603 25.6433 8.67822 25.2933 8.87358 24.9947C9.06894 24.6961 9.34866 24.4622 9.6772 24.3229C10.0057 24.1836 10.3683 24.1451 10.7187 24.2123C11.0692 24.2795 11.3918 24.4493 11.6456 24.7002C11.8993 24.9511 12.0727 25.2718 12.1438 25.6215C12.2149 25.9712 12.1804 26.3342 12.0448 26.6642C11.9092 26.9943 11.6785 27.2766 11.3821 27.4753C11.0856 27.674 10.7369 27.7801 10.38 27.7801C9.90606 27.7801 9.45122 27.5932 9.11423 27.26C8.77723 26.9267 8.58527 26.474 8.58 26.0001Z" fill="#BDBDBD"/>
<path d="M34.76 25.7201C37.2845 25.7201 39.7523 24.9712 41.8512 23.5682C43.95 22.1653 45.5854 20.1712 46.5506 17.8385C47.5158 15.5057 47.7673 12.9391 47.2733 10.4634C46.7794 7.98762 45.5621 5.71404 43.7756 3.93032C41.9891 2.1466 39.7136 0.932912 37.2371 0.442825C34.7606 -0.0472613 32.1943 0.208284 29.8631 1.17713C27.5319 2.14597 25.5404 3.78456 24.1407 5.88556C22.741 7.98656 21.996 10.4555 22 12.9801C22.0053 16.3608 23.352 19.6012 25.7444 21.9898C28.1368 24.3785 31.3793 25.7201 34.76 25.7201ZM36.22 5.12008C36.22 5.25269 36.2727 5.37986 36.3664 5.47363C36.4602 5.5674 36.5874 5.62008 36.72 5.62008H37.7C37.9074 5.59584 38.1177 5.61578 38.3168 5.67859C38.516 5.7414 38.6997 5.84566 38.8557 5.9845C39.0117 6.12335 39.1366 6.29364 39.2221 6.48419C39.3076 6.67474 39.3518 6.88123 39.3518 7.09008C39.3518 7.29893 39.3076 7.50542 39.2221 7.69597C39.1366 7.88651 39.0117 8.05681 38.8557 8.19566C38.6997 8.3345 38.516 8.43876 38.3168 8.50157C38.1177 8.56438 37.9074 8.58432 37.7 8.56008H33.7C33.4283 8.5561 33.1638 8.64765 32.9526 8.81877C32.7415 8.98988 32.5971 9.2297 32.5448 9.49637C32.4924 9.76304 32.5353 10.0396 32.666 10.2779C32.7967 10.5162 33.0069 10.701 33.26 10.8001L37.26 12.4201C38.1392 12.6874 38.8996 13.2494 39.4132 14.0115C39.9269 14.7736 40.1624 15.6893 40.0803 16.6046C39.9981 17.5199 39.6033 18.379 38.9622 19.0375C38.3211 19.6959 37.4728 20.1135 36.56 20.2201C36.4503 20.2459 36.352 20.3067 36.2799 20.3933C36.2077 20.4799 36.1657 20.5875 36.16 20.7001V21.3001C36.1626 21.4935 36.1268 21.6855 36.0547 21.8649C35.9825 22.0444 35.8754 22.2077 35.7395 22.3454C35.6037 22.4831 35.4418 22.5924 35.2634 22.6671C35.0849 22.7417 34.8934 22.7801 34.7 22.7801C34.3075 22.7801 33.931 22.6241 33.6535 22.3466C33.3759 22.069 33.22 21.6926 33.22 21.3001V20.8201C33.22 20.6875 33.1673 20.5603 33.0736 20.4665C32.9798 20.3728 32.8526 20.3201 32.72 20.3201H31.76C31.5526 20.3443 31.3423 20.3244 31.1432 20.2616C30.944 20.1988 30.7603 20.0945 30.6043 19.9557C30.4483 19.8168 30.3234 19.6465 30.2379 19.456C30.1524 19.2654 30.1082 19.0589 30.1082 18.8501C30.1082 18.6412 30.1524 18.4347 30.2379 18.2442C30.3234 18.0536 30.4483 17.8833 30.6043 17.7445C30.7603 17.6057 30.944 17.5014 31.1432 17.4386C31.3423 17.3758 31.5526 17.3558 31.76 17.3801H35.76C36.0317 17.3841 36.2962 17.2925 36.5074 17.1214C36.7185 16.9503 36.8629 16.7105 36.9152 16.4438C36.9676 16.1771 36.9247 15.9005 36.794 15.6623C36.6633 15.424 36.4531 15.2392 36.2 15.1401L32.2 13.5201C31.3208 13.2527 30.5604 12.6907 30.0468 11.9287C29.5331 11.1666 29.2976 10.2509 29.3797 9.33557C29.4619 8.42025 29.8567 7.56112 30.4978 6.90268C31.1389 6.24423 31.9872 5.82662 32.9 5.72008C33.013 5.70099 33.1154 5.64211 33.1888 5.55407C33.2622 5.46604 33.3016 5.35466 33.3 5.24008V4.64008C33.3 4.24756 33.4559 3.87111 33.7335 3.59356C34.011 3.31601 34.3875 3.16008 34.78 3.16008C34.9734 3.16006 35.1649 3.19848 35.3434 3.2731C35.5218 3.34772 35.6837 3.45705 35.8195 3.59475C35.9553 3.73245 36.0625 3.89577 36.1347 4.07522C36.2068 4.25467 36.2427 4.44667 36.24 4.64008L36.22 5.12008Z" fill="#BDBDBD"/>
</svg>
