<svg width="30" height="30" viewBox="0 0 30 30" fill="none" xmlns="http://www.w3.org/2000/svg">
<path d="M16.875 25.3125C16.875 25.5611 16.9738 25.7996 17.1496 25.9754C17.3254 26.1512 17.5639 26.25 17.8125 26.25H24.375C24.8723 26.25 25.3492 26.0525 25.7008 25.7008C26.0525 25.3492 26.25 24.8723 26.25 24.375V5.625C26.25 5.12772 26.0525 4.65081 25.7008 4.29917C25.3492 3.94754 24.8723 3.75 24.375 3.75H17.8125C17.5639 3.75 17.3254 3.84877 17.1496 4.02459C16.9738 4.2004 16.875 4.43886 16.875 4.6875C16.875 4.93614 16.9738 5.1746 17.1496 5.35041C17.3254 5.52623 17.5639 5.625 17.8125 5.625H24.375V24.375H17.8125C17.5639 24.375 17.3254 24.4738 17.1496 24.6496C16.9738 24.8254 16.875 25.0639 16.875 25.3125ZM4.02422 14.3367L8.71172 9.64922C8.88763 9.47331 9.12622 9.37448 9.375 9.37448C9.62378 9.37448 9.86237 9.47331 10.0383 9.64922C10.2142 9.82513 10.313 10.0637 10.313 10.3125C10.313 10.5613 10.2142 10.7999 10.0383 10.9758L6.95039 14.0625H17.8125C18.0611 14.0625 18.2996 14.1613 18.4754 14.3371C18.6512 14.5129 18.75 14.7514 18.75 15C18.75 15.2486 18.6512 15.4871 18.4754 15.6629C18.2996 15.8387 18.0611 15.9375 17.8125 15.9375H6.95039L10.0383 19.0242C10.2142 19.2001 10.313 19.4387 10.313 19.6875C10.313 19.9363 10.2142 20.1749 10.0383 20.3508C9.86237 20.5267 9.62378 20.6255 9.375 20.6255C9.12622 20.6255 8.88763 20.5267 8.71172 20.3508L4.02422 15.6633C3.93705 15.5762 3.8679 15.4728 3.82072 15.359C3.77355 15.2452 3.74926 15.1232 3.74926 15C3.74926 14.8768 3.77355 14.7548 3.82072 14.641C3.8679 14.5272 3.93705 14.4238 4.02422 14.3367Z" fill="#0077FF"/>
</svg>
