<svg width="32" height="32" viewBox="0 0 32 32" fill="none" xmlns="http://www.w3.org/2000/svg">
<path fill-rule="evenodd" clip-rule="evenodd" d="M17.0087 17.6919L16.6668 16.1258C18.1325 16.3994 20.4851 19.3856 21.2464 20.7419C21.6565 21.48 21.9932 22.2565 22.2517 23.0603C22.8057 25.1255 22.2722 27.0586 20.0314 27.5077C18.6295 27.7904 16.0103 27.8086 14.5354 27.7357C12.9397 27.6536 10.4914 27.6559 9.85086 26.026C8.81594 23.384 10.7125 20.2518 12.4427 18.3347C12.6654 18.0874 12.9005 17.8515 13.1471 17.628C13.7763 17.0764 14.4556 16.4199 15.2648 16.1463L14.483 17.603L15.6227 16.0962H16.22L17.011 17.6919H17.0087ZM8.38282 22.8893C8.36501 22.8543 8.34443 22.8207 8.32127 22.789C8.21869 22.6203 8.11383 22.4516 8.01125 22.2601C7.90867 22.0686 7.79925 21.8589 7.69895 21.6925C7.59865 21.5261 7.52114 21.2913 7.44364 21.0839C7.36613 20.8764 7.30231 20.6986 7.21568 20.4547C7.16544 20.2887 7.06417 20.1428 6.92627 20.0376C6.78837 19.9324 6.62084 19.8734 6.44747 19.8689H4.21577C4.1456 19.871 4.07574 19.8586 4.01061 19.8324C3.95224 19.8046 3.90024 19.765 3.85788 19.7161C3.8119 19.6711 3.77273 19.6197 3.74162 19.5634C3.71305 19.4981 3.6998 19.4272 3.70287 19.356V16.5521C3.70229 16.4865 3.71151 16.4212 3.73022 16.3583C3.76251 16.2911 3.80651 16.2301 3.86016 16.1782C3.90172 16.1313 3.95416 16.0953 4.01289 16.0734C4.07877 16.047 4.1494 16.0346 4.22033 16.0369H6.27194C6.46743 16.0362 6.65661 15.9676 6.80713 15.8429C6.95765 15.7181 7.06016 15.545 7.09714 15.353C7.14729 15.1251 7.19973 14.9268 7.24988 14.7444C7.30003 14.562 7.37981 14.3455 7.45732 14.138C7.5269 13.9362 7.60757 13.7383 7.69895 13.5453C7.79013 13.3402 7.89499 13.1601 7.9839 12.98C8.06939 12.8237 8.10183 12.6438 8.07634 12.4675C8.05085 12.2911 7.96882 12.1278 7.84256 12.0021L6.24686 10.3881C6.23547 10.3881 6.23547 10.3881 6.21951 10.3881C6.17298 10.3442 6.13442 10.2925 6.10553 10.2354C6.08103 10.1787 6.07161 10.1167 6.07818 10.0553C6.0753 9.98855 6.08859 9.92207 6.11693 9.86155C6.14553 9.79217 6.19004 9.73048 6.24686 9.68146L8.21869 7.72103C8.26899 7.66562 8.33033 7.62136 8.39878 7.5911C8.45957 7.56358 8.52584 7.55032 8.59254 7.55235C8.65919 7.55094 8.72533 7.56417 8.78631 7.5911C8.84793 7.62137 8.90477 7.66054 8.95499 7.70736H8.96639L10.4344 9.15488C10.5721 9.2917 10.7534 9.37579 10.9467 9.39246C11.1401 9.40913 11.3331 9.35731 11.4922 9.24607C11.6608 9.14349 11.8273 9.0409 12.0187 8.93832L12.6 8.6397C12.7938 8.54852 13.0012 8.45962 13.2064 8.38439C13.4116 8.30916 13.5939 8.24306 13.8378 8.15643C14.0029 8.10166 14.1465 7.99611 14.248 7.85487C14.3495 7.71363 14.4038 7.54392 14.4032 7.36998V5.14056C14.4003 5.06938 14.4136 4.99848 14.4419 4.93312C14.4707 4.88033 14.5027 4.82932 14.5377 4.78039C14.5802 4.73413 14.6334 4.69892 14.6927 4.67781C14.7571 4.6492 14.8274 4.63593 14.8978 4.63906H17.1067C17.1772 4.63649 17.2473 4.64973 17.3119 4.67781C17.371 4.69792 17.4237 4.73331 17.4646 4.78039C17.5034 4.82857 17.5385 4.87963 17.5695 4.93312C17.5961 4.99893 17.6086 5.06962 17.606 5.14056V7.36998C17.6068 7.54576 17.6633 7.71675 17.7673 7.85845C17.8713 8.00015 18.0175 8.10526 18.185 8.15871C18.4289 8.23394 18.6409 8.31144 18.8141 8.37527C18.9874 8.4391 19.2267 8.54396 19.4228 8.63286C19.6188 8.72177 19.7966 8.82663 20.0018 8.92921C20.2069 9.03179 20.362 9.13665 20.5306 9.23923C20.6893 9.35135 20.8826 9.4037 21.0762 9.38701C21.2698 9.37032 21.4512 9.28567 21.5884 9.14805L23.045 7.6914C23.0937 7.64327 23.1509 7.60462 23.2137 7.57742C23.274 7.54855 23.3407 7.53523 23.4075 7.53867C23.4742 7.53597 23.5406 7.54926 23.6012 7.57742C23.6701 7.60687 23.7316 7.65125 23.7813 7.70736L25.7531 9.66779C25.8086 9.71808 25.8528 9.77943 25.8831 9.84787C25.9121 9.90816 25.9255 9.97481 25.9218 10.0416C25.9282 10.103 25.9188 10.165 25.8945 10.2217C25.8646 10.2782 25.8261 10.3297 25.7805 10.3745C25.7668 10.3745 25.7668 10.3745 25.7531 10.3745L24.1574 11.9861C24.0307 12.112 23.9483 12.2757 23.9228 12.4526C23.8973 12.6294 23.9301 12.8097 24.0161 12.9663C24.1073 13.1441 24.2122 13.3242 24.2988 13.5317C24.3999 13.7277 24.4897 13.9294 24.5678 14.1357C24.643 14.3409 24.7091 14.5347 24.7729 14.7421C24.8368 14.9495 24.8778 15.1274 24.9279 15.3485C24.9645 15.5406 25.0669 15.714 25.2175 15.8388C25.3681 15.9637 25.5575 16.0321 25.7531 16.0323H27.8048C27.8759 16.0297 27.9468 16.043 28.0122 16.0711C28.0717 16.0904 28.1246 16.1259 28.1649 16.1737C28.2164 16.2274 28.2601 16.288 28.2949 16.3538C28.3108 16.4179 28.3192 16.4837 28.3199 16.5498V19.3605C28.3221 19.4314 28.3097 19.502 28.2835 19.568C28.2527 19.6245 28.2135 19.676 28.1672 19.7207C28.1255 19.7697 28.0733 19.8087 28.0145 19.8347C27.9491 19.863 27.8782 19.8762 27.807 19.8734H25.5776C25.4008 19.8699 25.2275 19.9228 25.0828 20.0245C24.9381 20.1261 24.8296 20.2712 24.7729 20.4388C24.6977 20.6849 24.6202 20.8947 24.545 21.0702C24.4697 21.2457 24.3763 21.4828 24.2874 21.6766C24.0936 22.0595 23.909 22.422 23.681 22.7844C23.6582 22.8186 23.6377 22.8505 23.6195 22.8847H25.5708C25.6528 22.7206 25.7349 22.5428 25.8215 22.3604C25.9241 22.1325 26.0267 21.9045 26.1179 21.6652C26.1293 21.6264 26.1566 21.574 26.1703 21.5352H27.823C28.109 21.5378 28.3929 21.486 28.6596 21.3825C28.9251 21.2722 29.1661 21.1103 29.3685 20.9061C29.5772 20.706 29.7404 20.4634 29.8472 20.1948C29.9494 19.9278 30.0011 19.6441 30 19.3582V16.5498C29.9973 16.2665 29.94 15.9863 29.8313 15.7246C29.7286 15.4633 29.5735 15.2259 29.3754 15.0271C29.1812 14.8245 28.9488 14.6626 28.6915 14.5506C28.4278 14.4354 28.1426 14.3779 27.8549 14.3819H26.4484C26.4466 14.3465 26.4381 14.3117 26.4233 14.2794C26.3458 14.0354 26.2683 13.7892 26.1771 13.5567C26.086 13.3242 25.9834 13.0803 25.8808 12.8729C25.8609 12.8403 25.8442 12.806 25.8306 12.7703L26.9909 11.5963C27.2019 11.4065 27.3692 11.1732 27.4811 10.9124C27.5891 10.6466 27.6456 10.3627 27.6475 10.0758C27.6512 9.78838 27.5945 9.50336 27.4811 9.23923C27.3662 8.97969 27.2038 8.74389 27.0023 8.54396L25.0305 6.58353C24.8266 6.37954 24.5851 6.21698 24.3193 6.10482C24.0541 5.99495 23.7698 5.93841 23.4827 5.93841C23.1956 5.93841 22.9113 5.99495 22.6461 6.10482C22.3779 6.21252 22.1356 6.37565 21.9349 6.58353L20.9022 7.55919L20.8247 7.52043C20.6173 7.40417 20.3848 7.29248 20.1408 7.18306C19.8969 7.07364 19.6849 6.97789 19.457 6.88671C19.4182 6.87531 19.3658 6.84796 19.327 6.832V5.17704C19.3297 4.891 19.2778 4.60709 19.1743 4.34043C19.0637 4.07449 18.901 3.83342 18.6956 3.63149C18.4888 3.42665 18.2442 3.26405 17.9753 3.15278C17.7076 3.05003 17.4231 2.99823 17.1364 3.00005H14.8773C14.5914 2.99846 14.3076 3.05026 14.0407 3.15278C13.7757 3.26636 13.5345 3.42875 13.3295 3.63149C13.1248 3.83351 12.9628 4.0746 12.8531 4.34043C12.7479 4.60668 12.6952 4.89078 12.698 5.17704V6.82744C12.6593 6.84112 12.6069 6.8662 12.5681 6.88215C12.3402 6.97334 12.1122 7.07592 11.8842 7.1785C11.6563 7.28108 11.4078 7.40645 11.2004 7.51587L11.1183 7.55919L10.113 6.56529C9.9123 6.35742 9.66993 6.19429 9.40179 6.08658C9.13686 5.97573 8.85238 5.91914 8.56519 5.92017C8.27774 5.91642 7.99271 5.97311 7.72858 6.08658C7.46225 6.19687 7.21992 6.35791 7.01508 6.56073L5.04325 8.52116H5.03185C4.8319 8.72186 4.67042 8.95751 4.55542 9.21643C4.44109 9.47957 4.38361 9.76387 4.38674 10.0508C4.38828 10.3379 4.44557 10.622 4.55542 10.8874C4.66825 11.147 4.83446 11.38 5.04325 11.5712L6.20583 12.7429C6.19136 12.7789 6.17461 12.8139 6.15568 12.8478C6.0531 13.0643 5.95964 13.3037 5.85706 13.5317C5.75448 13.7596 5.69065 14.0081 5.61314 14.2543C5.59848 14.2867 5.58924 14.3214 5.58579 14.3569H4.1793C3.89108 14.3528 3.60525 14.4095 3.34041 14.5233C3.0838 14.6374 2.8516 14.7999 2.65654 15.002H2.64514C2.44884 15.1971 2.29379 15.4296 2.18923 15.6859C2.0682 15.958 2.00383 16.252 2.00003 16.5498V19.3582C1.99865 19.6442 2.05044 19.9278 2.15276 20.1948C2.25959 20.4634 2.42284 20.706 2.63147 20.9061C2.83349 21.1107 3.07458 21.2728 3.34041 21.3825C3.60786 21.486 3.89252 21.5379 4.1793 21.5352H5.82742C5.8411 21.574 5.86618 21.6264 5.88213 21.6652C5.97332 21.8931 6.0759 22.1211 6.17848 22.3604C6.26738 22.5474 6.34717 22.7229 6.42923 22.8847H8.38282V22.8893ZM16.277 18.9365V19.3765C16.5336 19.3997 16.7855 19.4604 17.0247 19.5566C17.2355 19.6484 17.4221 19.7881 17.5695 19.9646C17.6845 20.0922 17.7805 20.2358 17.8544 20.3909C17.9165 20.5167 17.9515 20.6542 17.957 20.7944C17.9577 20.8603 17.9449 20.9256 17.9194 20.9863C17.894 21.0471 17.8563 21.102 17.8088 21.1477C17.7623 21.1961 17.7063 21.2344 17.6444 21.2603C17.5824 21.2862 17.5158 21.2991 17.4487 21.2982C17.3241 21.3018 17.2025 21.2598 17.1068 21.18C17.011 21.1002 16.9478 20.9882 16.9289 20.865C16.8919 20.7036 16.8123 20.5551 16.6984 20.4349C16.5846 20.3146 16.4407 20.227 16.2815 20.1812V21.8749C16.6166 21.9683 16.8879 22.0527 17.0862 22.1279C17.2851 22.2026 17.4677 22.3148 17.6242 22.4585C17.7913 22.6068 17.9243 22.7895 18.014 22.9942C18.1059 23.2103 18.1525 23.4431 18.1508 23.678C18.1494 23.9829 18.071 24.2824 17.9228 24.5488C17.7728 24.8236 17.5505 25.0522 17.28 25.2099C16.973 25.39 16.6277 25.4947 16.2724 25.5154V26.0533C16.2787 26.1716 16.2625 26.2899 16.2245 26.4021C16.2072 26.4405 16.1777 26.4722 16.1407 26.4923C16.1037 26.5125 16.0611 26.52 16.0194 26.5138C15.9804 26.5179 15.9411 26.5118 15.9052 26.4962C15.8692 26.4807 15.8379 26.4561 15.8142 26.4249C15.7682 26.3398 15.7476 26.2433 15.755 26.1468V25.529C15.4666 25.501 15.1853 25.4239 14.9229 25.3011C14.7009 25.2004 14.4999 25.0589 14.3302 24.8839C14.183 24.7288 14.0641 24.549 13.9792 24.3528C13.906 24.182 13.8672 23.9984 13.8652 23.8125C13.8657 23.7467 13.8794 23.6817 13.9057 23.6214C13.9319 23.5611 13.9701 23.5067 14.0179 23.4615C14.0669 23.4101 14.1261 23.3696 14.1916 23.3425C14.2572 23.3154 14.3277 23.3024 14.3986 23.3042C14.5081 23.3005 14.6161 23.3299 14.7086 23.3885C14.7926 23.4471 14.8544 23.5322 14.8842 23.6302C14.9373 23.8039 15.0005 23.9744 15.0734 24.1408C15.1333 24.2645 15.2178 24.3746 15.3218 24.4645C15.4486 24.5726 15.5982 24.6505 15.7595 24.6924V22.7913C15.4456 22.7079 15.1403 22.595 14.8477 22.4539C14.605 22.3328 14.3995 22.1485 14.2527 21.9205C14.0734 21.601 13.9989 21.2334 14.0398 20.8693C14.0807 20.5053 14.2349 20.1633 14.4807 19.8917C14.8351 19.5699 15.2925 19.3849 15.7709 19.3696V18.9365C15.7709 18.7086 15.8575 18.5946 16.0285 18.5946C16.1995 18.5946 16.2884 18.7063 16.2884 18.9297L16.277 18.9365ZM15.7595 21.7313V20.172C15.5629 20.2207 15.3793 20.3117 15.2215 20.4388C15.1025 20.5769 15.037 20.7533 15.037 20.9357C15.037 21.1181 15.1025 21.2945 15.2215 21.4326C15.3836 21.5656 15.5692 21.6669 15.7686 21.7313H15.7595ZM16.277 22.9417V24.7266C16.5194 24.6888 16.7427 24.5727 16.913 24.3961C17.06 24.2392 17.1415 24.0321 17.1409 23.8171C17.1464 23.7146 17.1288 23.6123 17.0893 23.5175C17.0498 23.4228 16.9896 23.3382 16.913 23.27C16.7249 23.1168 16.5066 23.0049 16.2724 22.9417H16.277ZM14.7884 13.8873C14.5308 13.1236 14.296 12.3508 14.1045 11.5667C14.8386 10.762 17.6721 10.8691 18.4882 11.5667L17.7291 13.3493C18.1348 12.8159 18.2716 12.597 18.5132 12.3007C18.6141 12.37 18.71 12.4462 18.8005 12.5286C19.034 12.7013 19.1962 12.9535 19.2564 13.2376C19.2682 13.3452 19.2562 13.4541 19.2211 13.5566C19.186 13.659 19.1288 13.7525 19.0535 13.8303L17.321 15.8477C17.0999 15.8119 16.8824 15.7562 16.6713 15.6813C16.7694 15.4533 16.8993 15.198 16.9859 14.9655L16.3545 15.6494C15.7899 15.5073 15.1926 15.5804 14.679 15.8545L12.91 13.7368C12.8174 13.6329 12.7642 13.4998 12.7596 13.3607C12.7596 12.8501 13.521 12.4101 13.9176 12.2437L14.7884 13.8873Z" fill="#0077FF"/>
</svg>
