<svg width="32" height="32" viewBox="0 0 32 32" fill="none" xmlns="http://www.w3.org/2000/svg">
<path d="M24.7273 5H13.8182C12.9502 5 12.1178 5.3448 11.504 5.95856C10.8903 6.57232 10.5455 7.40475 10.5455 8.27273V15.9091C10.5455 16.7771 10.8903 17.6095 11.504 18.2233C12.1178 18.837 12.9502 19.1818 13.8182 19.1818H24.7273C25.5953 19.1818 26.4277 18.837 27.0414 18.2233C27.6552 17.6095 28 16.7771 28 15.9091V8.27273C28 7.40475 27.6552 6.57232 27.0414 5.95856C26.4277 5.3448 25.5953 5 24.7273 5ZM25.8182 15.9091C25.8182 16.1984 25.7032 16.4759 25.4987 16.6805C25.2941 16.8851 25.0166 17 24.7273 17H13.8182C13.5289 17 13.2514 16.8851 13.0468 16.6805C12.8422 16.4759 12.7273 16.1984 12.7273 15.9091V8.27273C12.7273 7.9834 12.8422 7.70592 13.0468 7.50134C13.2514 7.29675 13.5289 7.18182 13.8182 7.18182H24.7273C25.0166 7.18182 25.2941 7.29675 25.4987 7.50134C25.7032 7.70592 25.8182 7.9834 25.8182 8.27273V15.9091ZM22 11.5455C21.5961 11.5468 21.2072 11.6985 20.9091 11.9709C20.6745 11.7577 20.383 11.6172 20.0701 11.5665C19.7572 11.5158 19.4363 11.5571 19.1464 11.6854C18.8565 11.8136 18.6101 12.0233 18.4371 12.289C18.2642 12.5546 18.1721 12.8648 18.1721 13.1818C18.1721 13.4988 18.2642 13.809 18.4371 14.0747C18.6101 14.3403 18.8565 14.55 19.1464 14.6783C19.4363 14.8065 19.7572 14.8478 20.0701 14.7971C20.383 14.7464 20.6745 14.6059 20.9091 14.3927C21.1061 14.5718 21.3438 14.7001 21.6016 14.7665C21.8594 14.8328 22.1295 14.8353 22.3885 14.7737C22.6475 14.7121 22.8875 14.5882 23.0878 14.4128C23.288 14.2374 23.4425 14.0158 23.5377 13.7672C23.633 13.5187 23.6661 13.2506 23.6343 12.9863C23.6025 12.722 23.5067 12.4694 23.3552 12.2505C23.2037 12.0316 23.0011 11.853 22.7649 11.7301C22.5288 11.6073 22.2662 11.5439 22 11.5455ZM20.3636 21.3636C20.0743 21.3636 19.7968 21.4786 19.5922 21.6832C19.3877 21.8877 19.2727 22.1652 19.2727 22.4545V23.5455C19.2727 23.8348 19.1578 24.1123 18.9532 24.3168C18.7486 24.5214 18.4711 24.6364 18.1818 24.6364H7.27273C6.9834 24.6364 6.70592 24.5214 6.50134 24.3168C6.29675 24.1123 6.18182 23.8348 6.18182 23.5455V19.1818H7.27273C7.56205 19.1818 7.83953 19.0669 8.04412 18.8623C8.2487 18.6577 8.36364 18.3802 8.36364 18.0909C8.36364 17.8016 8.2487 17.5241 8.04412 17.3195C7.83953 17.1149 7.56205 17 7.27273 17H6.18182V15.9091C6.18182 15.6198 6.29675 15.3423 6.50134 15.1377C6.70592 14.9331 6.9834 14.8182 7.27273 14.8182C7.56205 14.8182 7.83953 14.7032 8.04412 14.4987C8.2487 14.2941 8.36364 14.0166 8.36364 13.7273C8.36364 13.4379 8.2487 13.1605 8.04412 12.9559C7.83953 12.7513 7.56205 12.6364 7.27273 12.6364C6.40475 12.6364 5.57232 12.9812 4.95856 13.5949C4.3448 14.2087 4 15.0411 4 15.9091V23.5455C4 24.4134 4.3448 25.2459 4.95856 25.8596C5.57232 26.4734 6.40475 26.8182 7.27273 26.8182H18.1818C19.0498 26.8182 19.8822 26.4734 20.496 25.8596C21.1097 25.2459 21.4545 24.4134 21.4545 23.5455V22.4545C21.4545 22.1652 21.3396 21.8877 21.135 21.6832C20.9304 21.4786 20.653 21.3636 20.3636 21.3636ZM9.45455 22.4545H10.5455C10.8348 22.4545 11.1123 22.3396 11.3168 22.135C11.5214 21.9304 11.6364 21.653 11.6364 21.3636C11.6364 21.0743 11.5214 20.7968 11.3168 20.5922C11.1123 20.3877 10.8348 20.2727 10.5455 20.2727H9.45455C9.16522 20.2727 8.88774 20.3877 8.68316 20.5922C8.47857 20.7968 8.36364 21.0743 8.36364 21.3636C8.36364 21.653 8.47857 21.9304 8.68316 22.135C8.88774 22.3396 9.16522 22.4545 9.45455 22.4545Z" fill="#0077FF"/>
</svg>
