<svg width="49" height="49" viewBox="0 0 49 49" fill="none" xmlns="http://www.w3.org/2000/svg">
<path fill-rule="evenodd" clip-rule="evenodd" d="M24.5 2C17.681 2 13.026 2.355 10.146 2.691C7.258 3.028 5.056 5.217 4.726 8.116C4.377 11.193 4 16.39 4 24.5C4 32.61 4.376 37.807 4.726 40.884C5.056 43.783 7.258 45.972 10.146 46.309C13.025 46.645 17.681 47 24.5 47C31.318 47 35.975 46.645 38.853 46.309C41.742 45.972 43.944 43.783 44.273 40.884C44.623 37.807 45 32.61 45 24.5C45 21.463 44.947 18.834 44.862 16.573C44.857 16.418 44.827 16.266 44.775 16.12C44.316 14.849 42.914 11.946 38.852 7.985C34.541 3.781 31.46 2.505 30.314 2.148C30.1846 2.10775 30.0504 2.08521 29.915 2.081C28.287 2.03 26.485 2 24.5 2ZM33.665 11.264C31.7487 11.2043 29.8316 11.3519 27.947 11.704C26.121 12.051 25.644 14.231 26.835 15.421L27.959 16.545L27.892 16.605C27.593 16.868 27.173 17.246 26.687 17.712C25.7402 18.6123 24.8422 19.5627 23.997 20.559C23.579 19.278 23.054 17.834 22.486 16.682C21.78 15.25 19.989 14.569 18.48 15.496C17.045 16.378 14.724 18.302 12.035 22.41C11.7809 22.7985 11.6916 23.2721 11.7867 23.7265C11.8818 24.1809 12.1535 24.5789 12.542 24.833C12.9305 25.0871 13.4041 25.1764 13.8585 25.0813C14.3129 24.9862 14.7109 24.7145 14.965 24.326C16.946 21.298 18.611 19.718 19.665 18.923C20.151 20.05 20.615 21.433 20.981 22.627C21.348 23.831 22.38 24.456 23.311 24.601C24.235 24.743 25.369 24.467 26.103 23.521C27.078 22.264 28.207 21.101 29.105 20.241C29.4644 19.8975 29.8308 19.5614 30.204 19.233C30.2758 19.1689 30.3399 19.1132 30.3943 19.0658C30.4104 19.0518 30.4256 19.0385 30.44 19.026L31.579 20.166C32.77 21.356 34.95 20.879 35.296 19.053C35.6479 17.1684 35.7957 15.2513 35.737 13.335C35.7202 12.7909 35.4965 12.2737 35.1115 11.8889C34.7264 11.504 34.2091 11.2805 33.665 11.264Z" fill="#BDBDBD"/>
<path d="M12.2681 37.9844V31.2974C12.2681 31.1577 12.3182 31.0396 12.4185 30.9429C12.5187 30.8462 12.6387 30.7979 12.7783 30.7979H18.9712C19.1108 30.7979 19.229 30.848 19.3257 30.9482C19.4259 31.0485 19.4761 31.1685 19.4761 31.3081V31.813C19.4761 31.9526 19.4259 32.0726 19.3257 32.1729C19.229 32.2695 19.1108 32.3179 18.9712 32.3179H14.293V33.8809H18.3213C18.4609 33.8809 18.5791 33.931 18.6758 34.0312C18.776 34.1279 18.8262 34.2461 18.8262 34.3857V34.8906C18.8262 35.0303 18.776 35.1502 18.6758 35.2505C18.5791 35.3472 18.4609 35.3955 18.3213 35.3955H14.293V36.98H18.9604C19.0965 36.98 19.2129 37.0283 19.3096 37.125C19.4062 37.2217 19.4546 37.3398 19.4546 37.4795V37.9951C19.4546 38.1348 19.4045 38.2547 19.3042 38.355C19.2039 38.4517 19.084 38.5 18.9443 38.5H12.7783C12.6387 38.5 12.5187 38.4517 12.4185 38.355C12.3182 38.2547 12.2681 38.1312 12.2681 37.9844Z" fill="#BDBDBD"/>
<path d="M19.8037 31.813V31.3081C19.8037 31.1613 19.8521 31.0396 19.9487 30.9429C20.0454 30.8462 20.1672 30.7979 20.314 30.7979H27.1299C27.2767 30.7979 27.3984 30.8462 27.4951 30.9429C27.5918 31.0396 27.6401 31.1613 27.6401 31.3081V31.813C27.6401 31.9598 27.5918 32.0815 27.4951 32.1782C27.3984 32.2713 27.2767 32.3179 27.1299 32.3179H24.7344V38.0059C24.7344 38.1455 24.6842 38.2637 24.584 38.3604C24.4873 38.4535 24.3691 38.5 24.2295 38.5H23.2144C23.0747 38.5 22.9548 38.4535 22.8545 38.3604C22.7578 38.2637 22.7095 38.1455 22.7095 38.0059V32.3179H20.314C20.1672 32.3179 20.0454 32.2713 19.9487 32.1782C19.8521 32.0815 19.8037 31.9598 19.8037 31.813Z" fill="white"/>
<path d="M28.521 37.9844V31.2974C28.521 31.1577 28.5711 31.0396 28.6714 30.9429C28.7716 30.8462 28.8916 30.7979 29.0312 30.7979H35.2241C35.3638 30.7979 35.4819 30.848 35.5786 30.9482C35.6789 31.0485 35.729 31.1685 35.729 31.3081V31.813C35.729 31.9526 35.6789 32.0726 35.5786 32.1729C35.4819 32.2695 35.3638 32.3179 35.2241 32.3179H30.5459V34.2085H34.354C34.4937 34.2085 34.6118 34.2586 34.7085 34.3589C34.8088 34.4591 34.8589 34.5773 34.8589 34.7134V35.2236C34.8589 35.3633 34.8088 35.4832 34.7085 35.5835C34.6118 35.6802 34.4937 35.7285 34.354 35.7285H30.5459V37.9844C30.5459 38.1312 30.4958 38.2547 30.3955 38.355C30.2988 38.4517 30.1807 38.5 30.041 38.5H29.0312C28.8916 38.5 28.7716 38.4517 28.6714 38.355C28.5711 38.2547 28.521 38.1312 28.521 37.9844Z" fill="white"/>
</svg>
