<svg width="48" height="48" viewBox="0 0 48 48" fill="none" xmlns="http://www.w3.org/2000/svg">
<path d="M16.0602 19.3412H8C7.44772 19.3412 7 18.8935 7 18.3412V3.32828L21.0096 14.1889C21.526 14.5893 21.526 15.3693 21.0096 15.7696L16.6729 19.1315C16.4975 19.2675 16.282 19.3412 16.0602 19.3412Z" fill="#FFC225"/>
<path d="M31.4662 19.3412H39.5264C40.0787 19.3412 40.5264 18.8935 40.5264 18.3412V3.32828L26.5168 14.1889C26.0004 14.5893 26.0004 15.3693 26.5168 15.7696L30.8535 19.1315C31.0288 19.2675 31.2444 19.3412 31.4662 19.3412Z" fill="#FFC225"/>
<g filter="url(#filter0_d_25_160)">
<path d="M22.002 17.6844L23.1063 16.5801C23.4968 16.1896 24.13 16.1896 24.5205 16.5801L25.6248 17.6844C26.2548 18.3143 25.8086 19.3915 24.9177 19.3915H22.7091C21.8182 19.3915 21.3721 18.3144 22.002 17.6844Z" fill="#FFC225"/>
</g>
<path d="M18.7411 9.16662L23.1046 12.9846C23.4816 13.3145 24.0445 13.3145 24.4216 12.9846L28.785 9.16662C29.2029 8.80093 29.2428 8.16474 28.8739 7.74968L24.5105 2.84084C24.1127 2.39332 23.4134 2.39332 23.0157 2.84084L18.6522 7.74968C18.2833 8.16474 18.3232 8.80093 18.7411 9.16662Z" fill="#FFC225"/>
<path fill-rule="evenodd" clip-rule="evenodd" d="M8 21.5C7.44772 21.5 7 21.9477 7 22.5V30.5C7 31.0523 7.44772 31.5 8 31.5H15.4047C16.5093 31.5 17.4047 32.3954 17.4047 33.5V44.431C17.4047 44.9833 17.8524 45.431 18.4047 45.431H29.1216C29.6739 45.431 30.1216 44.9833 30.1216 44.431V33.5C30.1216 32.3954 31.017 31.5 32.1216 31.5H40C40.5523 31.5 41 31.0523 41 30.5V22.5C41 21.9477 40.5523 21.5 40 21.5H8Z" fill="#0077FF"/>
<defs>
<filter id="filter0_d_25_160" x="17.707" y="16.2872" width="12.2126" height="11.1043" filterUnits="userSpaceOnUse" color-interpolation-filters="sRGB">
<feFlood flood-opacity="0" result="BackgroundImageFix"/>
<feColorMatrix in="SourceAlpha" type="matrix" values="0 0 0 0 0 0 0 0 0 0 0 0 0 0 0 0 0 0 127 0" result="hardAlpha"/>
<feOffset dy="4"/>
<feGaussianBlur stdDeviation="2"/>
<feComposite in2="hardAlpha" operator="out"/>
<feColorMatrix type="matrix" values="0 0 0 0 0 0 0 0 0 0 0 0 0 0 0 0 0 0 0.25 0"/>
<feBlend mode="normal" in2="BackgroundImageFix" result="effect1_dropShadow_25_160"/>
<feBlend mode="normal" in="SourceGraphic" in2="effect1_dropShadow_25_160" result="shape"/>
</filter>
</defs>
</svg>
