<svg width="30" height="31" viewBox="0 0 30 31" fill="none" xmlns="http://www.w3.org/2000/svg">
<path d="M27.3679 17.0376C27.2476 16.9171 27.0968 16.8316 26.9317 16.7903C26.7665 16.749 26.5932 16.7535 26.4304 16.8032C24.6428 17.3436 22.7421 17.3889 20.9307 16.9343C19.1194 16.4797 17.4653 15.5422 16.1448 14.2216C14.8243 12.9011 13.8867 11.247 13.4321 9.4357C12.9775 7.62437 13.0228 5.72363 13.5632 3.93601C13.6134 3.77313 13.6182 3.59965 13.5771 3.43423C13.536 3.26882 13.4507 3.11773 13.3301 2.99721C13.2096 2.8767 13.0585 2.79131 12.8931 2.75025C12.7277 2.70918 12.5542 2.71398 12.3913 2.76414C9.91989 3.52122 7.75017 5.03851 6.19095 7.10008C4.82737 8.91046 3.99562 11.0652 3.78915 13.3222C3.58268 15.5793 4.00966 17.8492 5.02213 19.8769C6.0346 21.9046 7.59244 23.6099 9.52063 24.8011C11.4488 25.9922 13.671 26.6221 15.9374 26.62C18.5816 26.6281 21.1554 25.7686 23.264 24.1731C25.3256 22.6139 26.8429 20.4442 27.5999 17.9727C27.6495 17.8105 27.6541 17.6378 27.6132 17.4731C27.5724 17.3084 27.4876 17.1579 27.3679 17.0376ZM22.1367 22.6755C20.151 24.1711 17.6918 24.8991 15.212 24.7254C12.7321 24.5518 10.3985 23.4882 8.64056 21.7305C6.88267 19.9727 5.8189 17.6391 5.64505 15.1593C5.47121 12.6794 6.19901 10.2203 7.69446 8.23445C8.66877 6.9478 9.92837 5.90482 11.3742 5.18758C11.2918 5.76558 11.2503 6.34866 11.2499 6.9325C11.2533 10.1638 12.5385 13.2617 14.8233 15.5466C17.1082 17.8315 20.2062 19.1166 23.4374 19.12C24.0224 19.1198 24.6067 19.0783 25.1859 18.9958C24.468 20.4418 23.4242 21.7014 22.1367 22.6755Z" fill="#0077FF"/>
</svg>
