<svg width="48" height="48" viewBox="0 0 48 48" fill="none" xmlns="http://www.w3.org/2000/svg">
<path fill-rule="evenodd" clip-rule="evenodd" d="M10 3C10 2.46957 9.78929 1.96086 9.41421 1.58579C9.03914 1.21071 8.53043 1 8 1C7.46957 1 6.96086 1.21071 6.58579 1.58579C6.21071 1.96086 6 2.46957 6 3V8.566L5.642 8.594C3.189 8.804 1.692 10.858 1.617 13.042C1.557 14.764 1.5 17.375 1.5 21C1.5 24.625 1.558 27.236 1.617 28.958C1.692 31.142 3.189 33.197 5.642 33.406C6.305 33.463 7.088 33.5 8 33.5C8.912 33.5 9.695 33.463 10.358 33.406C12.811 33.196 14.308 31.142 14.383 28.958C14.443 27.236 14.5 24.625 14.5 21C14.5 17.375 14.442 14.764 14.383 13.042C14.308 10.858 12.811 8.803 10.358 8.594C10.242 8.584 10.123 8.574 10 8.566V3ZM6 39V35.434C6.582 35.474 7.247 35.5 8 35.5C8.753 35.5 9.418 35.474 10 35.434V39C10 39.5304 9.78929 40.0391 9.41421 40.4142C9.03914 40.7893 8.53043 41 8 41C7.46957 41 6.96086 40.7893 6.58579 40.4142C6.21071 40.0391 6 39.5304 6 39ZM25 13C25.5304 13 26.0391 13.2107 26.4142 13.5858C26.7893 13.9609 27 14.4696 27 15V20.549L27.113 20.555C29.626 20.694 31.333 22.727 31.419 25.075C31.464 26.29 31.5 27.917 31.5 30C31.5 32.083 31.464 33.71 31.42 34.925C31.333 37.273 29.626 39.306 27.113 39.445C26.508 39.478 25.805 39.5 25 39.5C24.195 39.5 23.492 39.478 22.887 39.445C20.374 39.306 18.667 37.273 18.581 34.925C18.5238 33.284 18.4968 31.642 18.5 30C18.5 27.917 18.536 26.29 18.58 25.075C18.667 22.727 20.374 20.694 22.887 20.555L23 20.549V15C23 14.4696 23.2107 13.9609 23.5858 13.5858C23.9609 13.2107 24.4696 13 25 13ZM23 45V41.451C23.58 41.481 24.244 41.5 25 41.5C25.756 41.5 26.42 41.481 27 41.451V45C27 45.5304 26.7893 46.0391 26.4142 46.4142C26.0391 46.7893 25.5304 47 25 47C24.4696 47 23.9609 46.7893 23.5858 46.4142C23.2107 46.0391 23 45.5304 23 45ZM42 3C42 2.46957 41.7893 1.96086 41.4142 1.58579C41.0391 1.21071 40.5304 1 40 1C39.4696 1 38.9609 1.21071 38.5858 1.58579C38.2107 1.96086 38 2.46957 38 3V4.475C36.948 4.689 35.885 5.085 34.997 5.757C33.81 6.655 33 8.01 33 9.75C33 10.746 33.238 11.66 33.736 12.454C34.227 13.236 34.895 13.779 35.57 14.164C36.783 14.857 38.297 15.181 39.44 15.425L39.581 15.455C40.923 15.743 41.833 15.958 42.445 16.308C42.707 16.458 42.821 16.584 42.877 16.673C42.925 16.75 43 16.907 43 17.25C43 17.65 42.866 17.879 42.584 18.094C42.228 18.364 41.604 18.611 40.725 18.714C39.868 18.814 38.921 18.76 38.066 18.574C37.184 18.381 36.566 18.085 36.253 17.834C36.0489 17.6643 35.8131 17.537 35.5593 17.4594C35.3055 17.3818 35.0388 17.3555 34.7747 17.382C34.5107 17.4085 34.2545 17.4873 34.0212 17.6138C33.7879 17.7403 33.5821 17.912 33.4158 18.1188C33.2495 18.3257 33.1261 18.5635 33.0526 18.8186C32.9792 19.0736 32.9572 19.3407 32.9881 19.6043C33.0189 19.8679 33.1019 20.1227 33.2322 20.3539C33.3625 20.5851 33.5375 20.7881 33.747 20.951C34.711 21.726 35.981 22.212 37.214 22.481C37.471 22.537 37.734 22.586 38 22.625V24C38 24.5304 38.2107 25.0391 38.5858 25.4142C38.9609 25.7893 39.4696 26 40 26C40.5304 26 41.0391 25.7893 41.4142 25.4142C41.7893 25.0391 42 24.5304 42 24V22.56C43.053 22.35 44.119 21.954 45.01 21.275C46.203 20.365 47 18.995 47 17.25C47 16.253 46.763 15.339 46.264 14.545C45.773 13.764 45.105 13.22 44.43 12.835C43.218 12.142 41.703 11.818 40.56 11.574L40.42 11.544C39.077 11.257 38.167 11.042 37.555 10.692C37.293 10.542 37.179 10.415 37.123 10.326C37.075 10.25 37 10.093 37 9.75C37 9.386 37.121 9.165 37.41 8.946C37.771 8.673 38.403 8.424 39.285 8.316C40.1726 8.21477 41.0708 8.25698 41.945 8.441C42.827 8.628 43.44 8.919 43.747 9.166C44.1605 9.49832 44.689 9.65277 45.2164 9.59538C45.7437 9.538 46.2267 9.27347 46.559 8.86C46.8913 8.44653 47.0458 7.91798 46.9884 7.39063C46.931 6.86327 46.6665 6.38032 46.253 6.048C45.283 5.269 44.008 4.788 42.775 4.528C42.521 4.474 42.262 4.428 42 4.39V3Z" fill="#FFFFFF"/>
</svg>
